<?xml version="1.0" standalone="no"?><!DOCTYPE svg PUBLIC "-//W3C//DTD SVG 1.1//EN" "http://www.w3.org/Graphics/SVG/1.1/DTD/svg11.dtd"><svg t="1704934621389" class="icon" viewBox="0 0 1038 1024" version="1.1" xmlns="http://www.w3.org/2000/svg" p-id="10497" xmlns:xlink="http://www.w3.org/1999/xlink" width="202.734375" height="200"><path d="M505.381101 7.42029C230.370319 7.42029 7.42029 230.370319 7.42029 505.381101c0 275.010783 222.950029 497.960812 497.960811 497.960812h28.078377c275.010783 0 497.960812-222.950029 497.960812-497.960812C1031.42029 230.370319 808.470261 7.42029 533.459478 7.42029h-28.078377z" fill="#71A3F7" p-id="10498"></path><path d="M263.42029 793.971014v-39.95084h39.817275V354.467246c0-44.135884 35.661913-79.916522 79.649392-79.916521h199.116057c43.987478 0 79.634551 35.765797 79.634551 79.916521v119.867363h79.649392c43.987478 0 79.649391 35.765797 79.649391 79.901681v199.783884H860.753623V793.971014H263.42029zM621.82029 354.467246a39.891478 39.891478 0 0 0-39.817276-39.965681H382.886957a39.891478 39.891478 0 0 0-39.817276 39.965681v399.552928H621.82029V354.467246z m159.283942 199.769044a39.891478 39.891478 0 0 0-39.817275-39.950841h-79.649392v239.734725h119.466667V554.23629z m-398.217275 0h159.283942v39.95084H382.886957v-39.95084z m0-79.901681h159.283942v39.95084H382.886957v-39.95084z m0-79.916522h159.283942v39.950841H382.886957v-39.950841z" fill="#FFFFFF" p-id="10499"></path></svg>