<?xml version="1.0" standalone="no"?><!DOCTYPE svg PUBLIC "-//W3C//DTD SVG 1.1//EN" "http://www.w3.org/Graphics/SVG/1.1/DTD/svg11.dtd"><svg t="1704934520908" class="icon" viewBox="0 0 1024 1024" version="1.1" xmlns="http://www.w3.org/2000/svg" p-id="5605" xmlns:xlink="http://www.w3.org/1999/xlink" width="200" height="200"><path d="M514.6112 518.7584m-450.816 0a450.816 450.816 0 1 0 901.632 0 450.816 450.816 0 1 0-901.632 0Z" fill="#E9ECFF" p-id="5606"></path><path d="M794.1632 722.7904h-38.2464V417.3824a21.1456 21.1456 0 0 0-21.1456-21.1456h-81.5616a21.1456 21.1456 0 0 0-21.1456 21.1456v305.408h-58.2656v-198.8608a21.1456 21.1456 0 0 0-21.1456-21.1456H471.04a21.1456 21.1456 0 0 0-21.1456 21.1456v198.8608H394.24v-89.7024a21.0944 21.0944 0 0 0-21.1456-21.0944H291.328a21.0944 21.0944 0 0 0-21.1456 21.0944v89.7024h-36.608a31.6928 31.6928 0 0 0 0 63.3344h560.5888a31.6928 31.6928 0 1 0 0-63.3344z" fill="#6C6CEA" p-id="5607"></path><path d="M283.6992 543.232a31.5392 31.5392 0 0 0 21.1456-8.0896l155.5456-140.032L505.3952 430.08a31.5904 31.5904 0 0 0 40.96-1.7408l112.64-104.448v7.168a31.6928 31.6928 0 0 0 63.3344 0V246.3744a31.6416 31.6416 0 0 0-31.6416-31.6416h-88.064a31.6928 31.6928 0 0 0 0 63.3344h12.8512L523.1104 363.52l-44.6976-34.8672a31.5904 31.5904 0 0 0-40.6528 1.4336L262.5024 488.0896a31.6416 31.6416 0 0 0 21.1968 55.1424zM755.9168 567.8592V417.3824a21.1456 21.1456 0 0 0-21.1456-21.1456h-81.5616a21.1456 21.1456 0 0 0-21.1456 21.1456v305.408h-58.2656v-198.8608a21.1456 21.1456 0 0 0-21.1456-21.1456H471.04a21.1456 21.1456 0 0 0-21.1456 21.1456v198.8608H394.24v-89.7024a21.0944 21.0944 0 0 0-21.1456-21.0944H291.328a21.0944 21.0944 0 0 0-21.1456 21.0944v89.7024h-36.608a31.6928 31.6928 0 0 0 0 63.3344h352.9216a416.6656 416.6656 0 0 0 169.4208-218.2656z" fill="#757BF2" p-id="5608"></path><path d="M571.136 246.3744a31.6416 31.6416 0 0 0 31.6416 31.6928h12.8512L523.1104 363.52l-44.6976-34.8672a31.5904 31.5904 0 0 0-40.6528 1.4336L262.5024 488.0896a31.6416 31.6416 0 0 0 42.3424 47.0528l155.5456-140.032L505.3952 430.08a31.5904 31.5904 0 0 0 40.96-1.7408l112.64-104.448v7.168a31.8976 31.8976 0 0 0 1.1776 8.3456 410.8288 410.8288 0 0 0-3.6352-124.7744h-53.76a31.6416 31.6416 0 0 0-31.6416 31.744zM649.3184 396.6464a21.0432 21.0432 0 0 0-17.2544 20.48v30.3104a409.6 409.6 0 0 0 17.2544-50.7904zM449.9456 523.9296v128.3584a416.9216 416.9216 0 0 0 123.8528-105.472v-22.8864a21.1456 21.1456 0 0 0-21.1456-21.1456H471.04a21.1456 21.1456 0 0 0-21.0944 21.1456zM394.24 678.2464v-45.1584a21.0944 21.0944 0 0 0-21.1456-21.0944H291.328a21.0944 21.0944 0 0 0-21.1456 21.0944v71.0144A414.1056 414.1056 0 0 0 394.24 678.2464z" fill="#8486F8" p-id="5609"></path><path d="M478.4128 328.8576a31.5904 31.5904 0 0 0-40.6528 1.4336L262.5024 488.0896a31.6416 31.6416 0 0 0 42.3424 47.0528l155.5456-140.032 15.36 11.8784A408.2176 408.2176 0 0 0 509.8496 353.28z" fill="#8D92F8" p-id="5610"></path></svg>